<mxfile host="app.diagrams.net" modified="2023-04-17T14:43:08.330Z" agent="Mozilla/5.0 (Windows NT 10.0; Win64; x64) AppleWebKit/537.36 (KHTML, like Gecko) Chrome/112.0.0.0 Safari/537.36" version="21.1.8" etag="wJ2I548gRoyA6nwdQflf" type="github">
  <diagram name="Page-1" id="e_GVJkQmt5YTgHR-A8tv">
    <mxGraphModel>
      <root>
        <mxCell id="0" />
        <mxCell id="1" parent="0" />
      </root>
    </mxGraphModel>
  </diagram>
</mxfile>
